# xmcd
#
# Track frame offsets:
# 150
# 12588
# 26576
#
# Disc length: 550 seconds
#
#
# Revision: 0
# Processed by: cddbd v1.5.1PL0 Copyright (c) Steve Scherf et al.
# Submitted via: FreeRIP 2.70 
#
DISCID=1c022403
DTITLE=Jesse Malin - Mona Lisa (single)
DYEAR=1900
DGENRE=Alt. Rock
TTITLE0=Mona Lisa
TTITLE1=New World Order (remix)
TTITLE2=Holy Ghost
EXTD=
EXTT0=
EXTT1=
EXTT2=
PLAYORDER=
